# xmcd
#
# Track frame offsets:
#	150
#	37560
#	82370
#	100535
#	186880
#
# Disc length: 3100 seconds
#
# Revision: 1
# Processed by: cddbd v1.5.1PL0 Copyright (c) Steve Scherf et al.
# Submitted via: CDex 1.50Beta5
#
DISCID=310c1a05
DTITLE=Charles Dutoit/Orchestre Symphonique De Montr将アal - Ravel Complete Orchestral Works 4
DYEAR=1900
DGENRE=Classical
TTITLE0=Piano Concerto in G Major - 1. Allegramente
TTITLE1=Piano Concerto in G Major - 2. Adagio assai
TTITLE2=Piano Concerto in G Major - 3. Presto
TTITLE3=Piano Concerto for the Left Hand in D Major
TTITLE4=Tzigane
EXTD=
EXTT0=
EXTT1=
EXTT2=
EXTT3=
EXTT4=
PLAYORDER=
